# xmcd
# 
# Track frame offsets:
#     150
#     14409
#     28256
#     42988
#     51888
#     59071
#     72930
#     82883
#     94026
#     109489
# 
# Disc length: 2115
# 
# Revision: 5
# Processed by: cddbd v1.5.2PL0 Copyright (c) Steve Scherf et al.
# Submitted via: fre:ac v1.0.31
# 
DISCID=8a08410a
DTITLE=The Doors - Strange Days Disc 1
DYEAR=1967
DGENRE=Rock/Pop
TTITLE0=Strange Days
TTITLE1=You're Lost Little Girl
TTITLE2=Love Me Two Times
TTITLE3=Unhappy Girl
TTITLE4=Horse Latitudes
TTITLE5=Moonlight Drive
TTITLE6=People Are Strange
TTITLE7=My Eyes Have Seen You
TTITLE8=I Can't See Your Face In My Mind
TTITLE9=When The Music's Over
EXTD=Produced by Paul A. Rothschild\n YEAR: 1967
EXTT0=
EXTT1=
EXTT2=
EXTT3=
EXTT4=
EXTT5=
EXTT6=
EXTT7=
EXTT8=
EXTT9=
PLAYORDER=
